<?xml version="1.0" encoding="utf-8"?>
<!-- Generator: Adobe Illustrator 24.0.1, SVG Export Plug-In . SVG Version: 6.00 Build 0)  -->
<svg version="1.1" id="Layer_1" xmlns="http://www.w3.org/2000/svg" xmlns:xlink="http://www.w3.org/1999/xlink" x="0px" y="0px"
	 viewBox="0 0 48 22" style="enable-background:new 0 0 48 22;" xml:space="preserve">
<g id="bar_icon" transform="translate(-69 -62.5)">
	<path d="M115,66.5H71c-1.1,0-2-0.9-2-2s0.9-2,2-2h44c1.1,0,2,0.9,2,2S116.1,66.5,115,66.5z"/>
	<path d="M106.5,75.5H71c-1.1,0-2-0.9-2-2s0.9-2,2-2h35.5c1.1,0,2,0.9,2,2S107.6,75.5,106.5,75.5z"/>
	<path d="M97.5,84.5H71c-1.1,0-2-0.9-2-2s0.9-2,2-2h26.5c1.1,0,2,0.9,2,2S98.6,84.5,97.5,84.5z"/>
</g>
</svg>
