<svg id="cart_icon" xmlns="http://www.w3.org/2000/svg" width="22.625" height="22.625" viewBox="0 0 22.625 22.625">
  <path id="Path_1" data-name="Path 1" d="M0,0H22.625V22.625H0Z" fill="none"/>
  <path id="Path_2" data-name="Path 2" d="M15.383,13.7a1.876,1.876,0,0,0,1.65-.971l3.375-6.118a.939.939,0,0,0-.82-1.4H5.635L4.749,3.333H1.667V5.219H3.552l3.394,7.155-1.273,2.3a1.889,1.889,0,0,0,1.65,2.8H18.635V15.589H7.323L8.36,13.7ZM6.531,7.1H17.985l-2.6,4.714H8.765Zm.792,11.313A1.885,1.885,0,1,0,9.208,20.3,1.883,1.883,0,0,0,7.323,18.417Zm9.427,0A1.885,1.885,0,1,0,18.635,20.3,1.883,1.883,0,0,0,16.75,18.417Z" transform="translate(-0.724 -1.448)" fill="#254263" stroke="#254263" stroke-width="0.5"/>
</svg>
