<svg xmlns="http://www.w3.org/2000/svg" width="18.716" height="18.716" viewBox="0 0 18.716 18.716">
  <path id="close" d="M17.277,18.716a1.345,1.345,0,0,1-1.013-.427l-3.857-3.847a7.733,7.733,0,0,1-4.488,1.394,7.812,7.812,0,0,1-3.076-.623A7.764,7.764,0,0,1,.623,11a7.9,7.9,0,0,1,0-6.153A7.747,7.747,0,0,1,4.843.626,7.877,7.877,0,0,1,11,.626a7.964,7.964,0,0,1,2.53,1.686,7.929,7.929,0,0,1,1.687,2.531,7.911,7.911,0,0,1-.769,7.564L18.3,16.264a1.446,1.446,0,0,1-1.024,2.452ZM7.919,2.88A4.879,4.879,0,0,0,4.358,4.359,4.877,4.877,0,0,0,2.88,7.919a4.877,4.877,0,0,0,1.477,3.56,4.883,4.883,0,0,0,3.561,1.479,4.873,4.873,0,0,0,3.559-1.479,4.871,4.871,0,0,0,1.48-3.56,4.871,4.871,0,0,0-1.48-3.56A4.869,4.869,0,0,0,7.919,2.88Z" fill="#212121"/>
</svg>
