<svg xmlns="http://www.w3.org/2000/svg" width="418.245" height="73.94" viewBox="0 0 418.245 73.94">
  <g id="cube_media" transform="translate(-1260 -11893)">
    <g id="Group_2258" data-name="Group 2258" transform="translate(1200.142 11780.656)">
      <path id="Path_5354" data-name="Path 5354" d="M149.5,149.461l-1.187.685a.594.594,0,0,0-.3.514v36.709a.594.594,0,0,0,.89.514l5.048-2.915a.594.594,0,0,0,.3-.514V147.746a.594.594,0,0,0-.891-.514.593.593,0,0,1-.89-.514V116.5a.594.594,0,0,0-.3-.514l-1.484-.857a.593.593,0,0,0-.89.514v33.3a.594.594,0,0,1-.3.514" transform="translate(-54.65 -1.678)" fill="#ccd2d9" fill-rule="evenodd"/>
      <path id="Path_5355" data-name="Path 5355" d="M172.937,152.7l-1.187.685a.594.594,0,0,0-.3.514v36.709a.594.594,0,0,0,.89.514l5.048-2.914a.593.593,0,0,0,.3-.514V150.988a.593.593,0,0,0-.89-.514.593.593,0,0,1-.89-.514V130.029a.594.594,0,0,0-.3-.514l-1.485-.858a.593.593,0,0,0-.89.514v23.018a.594.594,0,0,1-.3.514" transform="translate(-69.176 -10.063)" fill="#ccd2d9" fill-rule="evenodd"/>
      <path id="Path_5356" data-name="Path 5356" d="M196.371,155.948l-1.188.686a.593.593,0,0,0-.3.514v36.708a.593.593,0,0,0,.89.514l5.048-2.914a.593.593,0,0,0,.3-.514V154.233a.593.593,0,0,0-.89-.514h0a.593.593,0,0,1-.889-.514V143.56a.593.593,0,0,0-.3-.514l-1.485-.858a.593.593,0,0,0-.89.514v12.732a.594.594,0,0,1-.3.514" transform="translate(-83.702 -18.45)" fill="#ccd2d9" fill-rule="evenodd"/>
      <path id="Path_5357" data-name="Path 5357" d="M219.8,159.191l-1.188.686a.594.594,0,0,0-.3.514V197.1a.593.593,0,0,0,.89.514l3.267-1.887a.593.593,0,0,0,.3-.514V157.088a.593.593,0,0,0-.3-.514l-1.485-.858a.593.593,0,0,0-.89.514v2.446a.594.594,0,0,1-.3.514" transform="translate(-98.228 -26.837)" fill="#ccd2d9" fill-rule="evenodd"/>
      <path id="Path_5358" data-name="Path 5358" d="M130.814,148.125h0a.593.593,0,0,0,.89-.514V112.938a.593.593,0,0,0-.89-.514l-5.048,2.915a.594.594,0,0,0-.3.514V144.7a.593.593,0,0,0,.3.514l1.188.686a.593.593,0,0,1,.3.514V183.8a.6.6,0,0,0,.3.514l1.486.858a.593.593,0,0,0,.89-.514V148.639a.593.593,0,0,1,.89-.514" transform="translate(-40.672)" fill="#ccd2d9" fill-rule="evenodd"/>
      <path id="Path_5359" data-name="Path 5359" d="M107.379,151.369h0a.593.593,0,0,0,.89-.514V126.467a.593.593,0,0,0-.89-.514l-5.049,2.914a.594.594,0,0,0-.3.514V147.94a.594.594,0,0,0,.3.514l1.189.686a.593.593,0,0,1,.3.514v37.394a.594.594,0,0,0,.3.514l1.485.858a.594.594,0,0,0,.89-.514V151.883a.593.593,0,0,1,.89-.514" transform="translate(-26.145 -8.386)" fill="#ccd2d9" fill-rule="evenodd"/>
      <path id="Path_5360" data-name="Path 5360" d="M83.947,154.613h0a.593.593,0,0,0,.89-.514V140a.593.593,0,0,0-.89-.514L78.9,142.4a.594.594,0,0,0-.3.514v8.274a.594.594,0,0,0,.3.514l1.187.686a.594.594,0,0,1,.3.514v37.394a.592.592,0,0,0,.3.514l1.486.858a.593.593,0,0,0,.89-.514V155.127a.593.593,0,0,1,.89-.514" transform="translate(-11.62 -16.773)" fill="#ccd2d9" fill-rule="evenodd"/>
      <path id="Path_5361" data-name="Path 5361" d="M63.42,157.857h0a.593.593,0,0,0,.89-.514v-3.817a.593.593,0,0,0-.89-.514L60.154,154.9a.593.593,0,0,0-.3.514v38.125a.593.593,0,0,0,.3.514l1.484.858a.593.593,0,0,0,.89-.514V158.371a.593.593,0,0,1,.89-.514" transform="translate(0 -25.16)" fill="#ccd2d9" fill-rule="evenodd"/>
    </g>
    <g id="Group_2259" data-name="Group 2259" transform="translate(1337.098 11574.83)">
      <path id="Path_5362" data-name="Path 5362" d="M7.589,355.117c0-9.312,6.856-16.678,17.466-16.678A18.655,18.655,0,0,1,35.2,341.173a.911.911,0,0,1,.277,1.3l-2.5,4.541a.782.782,0,0,1-1.251.323,13.161,13.161,0,0,0-6.347-1.574c-5.884,0-9.729,3.613-9.729,9.358,0,5.79,3.845,9.4,9.729,9.4a13.16,13.16,0,0,0,6.347-1.574.832.832,0,0,1,1.251.323l2.5,4.541a.852.852,0,0,1-.277,1.3,17.8,17.8,0,0,1-10.146,2.734c-10.61,0-17.466-7.367-17.466-16.724" transform="translate(0)" fill="#ccd2d9"/>
      <path id="Path_5363" data-name="Path 5363" d="M38.229,357.036V339.711a.832.832,0,0,1,.925-.928h5.93a.832.832,0,0,1,.928.928v17.928c0,3.613,1.992,7.182,6.9,7.182,4.957,0,7-3.568,7-7.182V339.711a.832.832,0,0,1,.927-.928h5.931a.832.832,0,0,1,.925.928v17.325c0,9.683-5.882,14.733-14.778,14.733-8.8,0-14.685-5.05-14.685-14.733" transform="translate(6.423 0.072)" fill="#ccd2d9"/>
      <path id="Path_5364" data-name="Path 5364" d="M98.4,361.994c0,5.79-3.752,9.358-12.787,9.358h-12.6a.831.831,0,0,1-.927-.925V339.711a.832.832,0,0,1,.927-.928h12c8.663,0,12.184,3.66,12.184,8.34a7.117,7.117,0,0,1-4.819,7.041,7.654,7.654,0,0,1,6.023,7.83M84.917,345.176H79.682v6.764h5.235c3.428,0,4.818-1.2,4.818-3.382,0-2.083-1.39-3.382-4.818-3.382M90.8,361.531c0-2.316-1.667-3.567-5.327-3.567H79.682v7h5.977c3.613,0,5.142-1.344,5.142-3.428" transform="translate(13.519 0.072)" fill="#ccd2d9"/>
      <path id="Path_5365" data-name="Path 5365" d="M125.342,365.468v4.958a.831.831,0,0,1-.927.925H103.152a.831.831,0,0,1-.927-.925V339.711a.832.832,0,0,1,.927-.928h21.032a.833.833,0,0,1,.928.928v5a.832.832,0,0,1-.928.927H110.008v5.884h12.415a.832.832,0,0,1,.928.927v5a.833.833,0,0,1-.928.928H110.008v6.161h14.408a.832.832,0,0,1,.927.927" transform="translate(19.837 0.072)" fill="#ccd2d9"/>
      <path id="Path_5366" data-name="Path 5366" d="M178.05,370.425c0,.74-.371.927-.973.927h-5.7a.832.832,0,0,1-.927-.927l-.046-15.845-7.553,12.972a1.194,1.194,0,0,1-1.11.648h-3.29a1.123,1.123,0,0,1-1.112-.648l-7.413-13.018-.046,15.891a.832.832,0,0,1-.927.927h-5.744c-.7,0-.927-.278-.927-.927l.786-30.716c0-.556.325-.927,1.02-.927h3.1a1.2,1.2,0,0,1,1.113.648l11.767,20.014,12-20.014a1.2,1.2,0,0,1,1.113-.648h3.057a.937.937,0,0,1,1.02.974Z" transform="translate(28.234 0.072)" fill="#ccd2d9"/>
      <path id="Path_5367" data-name="Path 5367" d="M204.5,365.468v4.958a.831.831,0,0,1-.927.925H182.315a.831.831,0,0,1-.927-.925V339.711a.832.832,0,0,1,.927-.928h21.032a.833.833,0,0,1,.928.928v5a.832.832,0,0,1-.928.927H189.171v5.884h12.415a.832.832,0,0,1,.928.927v5a.833.833,0,0,1-.928.928H189.171v6.161h14.408a.832.832,0,0,1,.927.927" transform="translate(36.431 0.072)" fill="#ccd2d9"/>
      <path id="Path_5368" data-name="Path 5368" d="M239.7,355.045c0,9.775-6.856,16.307-17.141,16.307H210.235a.831.831,0,0,1-.927-.925V339.711a.832.832,0,0,1,.927-.928h12.322c10.285,0,17.141,6.487,17.141,16.262m-7.922.092c0-5.7-3.521-9.5-9.682-9.5h-5V364.5h5c6.161,0,9.682-3.752,9.682-9.359" transform="translate(42.284 0.072)" fill="#ccd2d9"/>
      <path id="Path_5369" data-name="Path 5369" d="M242.819,370.425V339.71a.832.832,0,0,1,.927-.927h5.93a.832.832,0,0,1,.928.927v30.716a.832.832,0,0,1-.928.927h-5.93a.832.832,0,0,1-.927-.927" transform="translate(49.308 0.072)" fill="#ccd2d9"/>
      <path id="Path_5370" data-name="Path 5370" d="M288.223,371.353h-6.254a1.1,1.1,0,0,1-1.067-.741l-2.038-5.05H266.309l-2.084,5.05a1.1,1.1,0,0,1-1.066.741H256.9c-.694,0-1.018-.417-.74-1.066l13.712-30.809a1.12,1.12,0,0,1,1.112-.694h3.29a1.12,1.12,0,0,1,1.112.694l13.574,30.809c.277.648-.047,1.066-.741,1.066m-19.458-12.324h7.644l-3.844-9.173Z" transform="translate(52.085 0.072)" fill="#ccd2d9"/>
    </g>
  </g>
</svg>
