<svg xmlns="http://www.w3.org/2000/svg" width="442.025" height="79.115" viewBox="0 0 442.025 79.115">
  <g id="drawingart" transform="translate(-2328.741 -11783)">
    <path id="Path_5371" data-name="Path 5371" d="M662.539,174.468a39.558,39.558,0,1,0,0,55.943,39.558,39.558,0,0,0,0-55.943M613.91,223.1l5.459-20.375,14.915,14.915Zm25.126-6.733-18.393-18.393,6.365-23.755L662.791,210Z" transform="translate(1733.732 11620.118)" fill="#ccd2d9"/>
    <g id="Group_2261" data-name="Group 2261" transform="translate(1868.229 11495.088)">
      <path id="Path_5372" data-name="Path 5372" d="M569.628,310.908h12.8c10.316,0,17.443,7.08,17.443,16.32v.094c0,9.236-7.127,16.412-17.443,16.412h-12.8Zm12.8,26.306c5.906,0,9.892-3.984,9.892-9.8v-.092c0-5.816-3.986-9.9-9.892-9.9h-5.582v19.789Z" transform="translate(0 0.263)" fill="#ccd2d9"/>
      <path id="Path_5373" data-name="Path 5373" d="M588.683,310.907h15.008c4.172,0,7.408,1.174,9.566,3.33a10.312,10.312,0,0,1,2.813,7.5v.094a10.2,10.2,0,0,1-7.031,10.177l8.017,11.723h-8.443l-7.031-10.5h-5.674v10.5h-7.224Zm14.539,15.945c3.516,0,5.533-1.877,5.533-4.644v-.092c0-3.1-2.158-4.689-5.674-4.689h-7.174v9.426Z" transform="translate(16.673 0.262)" fill="#ccd2d9"/>
      <path id="Path_5374" data-name="Path 5374" d="M618.828,310.782h6.66l14.068,33.06h-7.549l-3-7.363H615.125l-3,7.363h-7.361Zm7.6,19.32-4.361-10.644L617.705,330.1Z" transform="translate(30.742 0.153)" fill="#ccd2d9"/>
      <path id="Path_5375" data-name="Path 5375" d="M621.917,310.951h7.738l6.8,22.226,7.363-22.32H650l7.363,22.32,6.8-22.226h7.551l-11.207,33.06h-6.285l-7.408-21.476-7.408,21.476h-6.283Z" transform="translate(45.753 0.219)" fill="#ccd2d9"/>
      <rect id="Rectangle_8286" data-name="Rectangle 8286" width="7.223" height="32.826" transform="translate(722.201 311.169)" fill="#ccd2d9"/>
      <path id="Path_5376" data-name="Path 5376" d="M658.727,310.907h6.66l15.381,20.211V310.907H687.9v32.826h-6.144l-15.895-20.867v20.867h-7.129Z" transform="translate(77.963 0.263)" fill="#ccd2d9"/>
      <path id="Path_5377" data-name="Path 5377" d="M677.208,327.677v-.094a16.849,16.849,0,0,1,17.211-16.976c5.908,0,9.471,1.6,12.9,4.5l-4.551,5.486a12.084,12.084,0,0,0-8.58-3.33c-5.252,0-9.428,4.643-9.428,10.223v.094c0,6,4.129,10.41,9.943,10.41a11.53,11.53,0,0,0,6.8-1.971v-4.689h-7.269V325.1h14.258v14.258a21.314,21.314,0,0,1-14.021,5.2c-10.222,0-17.258-7.174-17.258-16.881" transform="translate(94.133 0)" fill="#ccd2d9"/>
      <path id="Path_5378" data-name="Path 5378" d="M709.655,310.782h6.66l14.068,33.06h-7.549l-3-7.363H705.952l-3,7.363h-7.361Zm7.6,19.32-4.361-10.644L708.532,330.1Z" transform="translate(110.217 0.153)" fill="#ccd2d9"/>
      <path id="Path_5379" data-name="Path 5379" d="M716.344,310.907H731.35c4.174,0,7.408,1.174,9.566,3.33a10.3,10.3,0,0,1,2.814,7.5v.094A10.2,10.2,0,0,1,736.7,332.01l8.018,11.723h-8.441l-7.033-10.5h-5.674v10.5h-7.223Zm14.537,15.945c3.518,0,5.533-1.877,5.533-4.644v-.092c0-3.1-2.156-4.689-5.674-4.689h-7.174v9.426Z" transform="translate(128.377 0.262)" fill="#ccd2d9"/>
      <path id="Path_5380" data-name="Path 5380" d="M742.662,317.567h-9.988v-6.66h27.2v6.66h-9.988v26.166h-7.221Z" transform="translate(142.666 0.262)" fill="#ccd2d9"/>
    </g>
  </g>
</svg>
