<svg xmlns="http://www.w3.org/2000/svg" width="47.855" height="47.864" viewBox="0 0 47.855 47.864">
  <g id="instragramline" transform="translate(-0.449)">
    <path id="Path_5395" data-name="Path 5395" d="M48.183,14.072A17.49,17.49,0,0,0,47.07,8.266a12.261,12.261,0,0,0-7-7A17.535,17.535,0,0,0,34.26.15C31.7.028,30.885,0,24.386,0s-7.312.028-9.865.14A17.5,17.5,0,0,0,8.715,1.253,11.679,11.679,0,0,0,4.47,4.021,11.784,11.784,0,0,0,1.712,8.256,17.537,17.537,0,0,0,.6,14.063c-.122,2.562-.15,3.376-.15,9.874s.028,7.312.14,9.865A17.489,17.489,0,0,0,1.7,39.608a12.259,12.259,0,0,0,7,7,17.537,17.537,0,0,0,5.807,1.113c2.552.112,3.366.14,9.865.14s7.312-.028,9.865-.14a17.485,17.485,0,0,0,5.806-1.113,12.243,12.243,0,0,0,7-7A17.549,17.549,0,0,0,48.164,33.8c.112-2.553.14-3.366.14-9.865S48.295,16.625,48.183,14.072Zm-4.31,19.542a13.119,13.119,0,0,1-.823,4.441A7.94,7.94,0,0,1,38.505,42.6a13.166,13.166,0,0,1-4.441.823c-2.525.112-3.282.14-9.668.14s-7.153-.028-9.668-.14a13.113,13.113,0,0,1-4.441-.823,7.365,7.365,0,0,1-2.749-1.786,7.441,7.441,0,0,1-1.786-2.749,13.168,13.168,0,0,1-.823-4.441c-.112-2.525-.14-3.282-.14-9.668s.028-7.153.14-9.668a13.113,13.113,0,0,1,.823-4.441A7.275,7.275,0,0,1,7.546,7.1,7.43,7.43,0,0,1,10.3,5.311a13.175,13.175,0,0,1,4.441-.823c2.525-.112,3.282-.14,9.668-.14s7.153.028,9.668.14a13.119,13.119,0,0,1,4.441.823A7.36,7.36,0,0,1,41.263,7.1,7.44,7.44,0,0,1,43.05,9.846a13.173,13.173,0,0,1,.823,4.441c.112,2.525.14,3.282.14,9.668S43.985,31.09,43.872,33.614Zm0,0" fill="currentColor"/>
    <path id="Path_5396" data-name="Path 5396" d="M137.245,124.5a12.3,12.3,0,1,0,12.3,12.3A12.3,12.3,0,0,0,137.245,124.5Zm0,20.272a7.976,7.976,0,1,1,7.976-7.976A7.977,7.977,0,0,1,137.245,144.772Zm0,0" transform="translate(-112.859 -112.859)" fill="currentColor"/>
    <path id="Path_5397" data-name="Path 5397" d="M368.191,91.472a2.871,2.871,0,1,1-2.871-2.87A2.871,2.871,0,0,1,368.191,91.472Zm0,0" transform="translate(-328.152 -80.317)" fill="currentColor"/>
  </g>
</svg>
