<?xml version="1.0" encoding="utf-8"?>
<!-- Generator: Adobe Illustrator 24.0.1, SVG Export Plug-In . SVG Version: 6.00 Build 0)  -->
<svg version="1.1" id="Layer_1" xmlns="http://www.w3.org/2000/svg" xmlns:xlink="http://www.w3.org/1999/xlink" x="0px" y="0px"
	 viewBox="0 0 470.2 80" style="enable-background:new 0 0 470.2 80;" xml:space="preserve">
<style type="text/css">
	.st0{fill-rule:evenodd;clip-rule:evenodd;fill:#FFFFFF;}
	.st1{enable-background:new    ;}
	.st2{fill:#FFFFFF;}
</style>
<g>
	<g id="Group_1" transform="translate(125 -199.89)">
		<path id="Path_1" class="st0" d="M-73.6,249.9c-0.5,0.5-1.1,0.8-1.8,0.8h-6.3c0.3-0.1,0.6-0.3,0.9-0.6l13-12.9
			c15.9-17.8,23.9-16.2,39.1-16.2H6c0.7,0,1.4-0.2,1.8-0.8l16-16c1-1,1-2.6,0-3.7c-0.5-0.5-1.1-0.8-1.8-0.8h-68.9
			c-9.9-0.2-19.6,3.3-27.1,9.9l-37.1,36.7c-1,1-1,2.7,0,3.7c0.5,0.5,1.1,0.7,1.8,0.7h9.9l-24.9,24.6c-0.8,0.7-1,1.9-0.5,2.8
			c0.4,1,1.3,1.6,2.4,1.6h26.4c0.7,0,1.4-0.3,1.8-0.8l13-12.9c14.1-14,27.1-16.2,45.9-16.2c0.7,0,1.4-0.2,1.8-0.8l16-16
			c1-1,1-2.6,0-3.7c-0.5-0.5-1.1-0.8-1.8-0.8C-54.4,228.9-48.8,225.3-73.6,249.9L-73.6,249.9z"/>
	</g>
	<g class="st1">
		<path class="st2" d="M195.4,33.1h-21.9l-0.9,5.1h20.2l-1.3,7.2h-20.2L169.4,56h-9.8l5.5-30.8h31.7L195.4,33.1z"/>
		<path class="st2" d="M231.1,32.7h-22.4l-0.8,4.4h20.6l-1.1,6.4h-20.6l-0.9,5h22.8l-1.4,7.5h-32.6l5.5-30.8h32.1L231.1,32.7z"/>
		<path class="st2" d="M242.7,47.6h20.6l-1.5,8.4h-30.4l5.5-30.8h9.8L242.7,47.6z"/>
		<path class="st2" d="M274.2,56c-6,0-8.8-3.3-7.7-9.3l2.3-13c1.1-6.1,3.9-8.4,9.9-8.4h19.9c6,0,8.8,3.2,7.7,9.3l-0.4,2h-9.8
			l0.1-0.8c0.4-2.1-0.3-2.9-2.4-2.9h-12.5c-2.1,0-2.9,0.6-3.2,2.7L276.4,46c-0.4,2.1,0.3,2.9,2.4,2.9h12.8c2.1,0,2.8-0.7,3.2-2.8
			l0.3-1.2h-9.4l1.1-6.2h18.8l-1.5,8.9c-1.1,6.1-3.9,8.4-9.9,8.4H274.2z"/>
		<path class="st2" d="M343.5,32.7h-22.4l-0.8,4.4h20.6l-1.1,6.4h-20.6l-0.9,5h22.8l-1.4,7.5h-32.6l5.5-30.8h32.1L343.5,32.7z"/>
		<path class="st2" d="M377.1,25.2h9.4L381,56h-7.9l-16.5-19.5L353.2,56h-9.4l5.5-30.8h8.3l16.2,19L377.1,25.2z"/>
	</g>
	<g class="st1">
		<path class="st2" d="M420.6,27.6h-26.2l-2.1,12h24.5l-0.4,2.3h-24.5L389.4,56h-2.8l5.5-30.8h29L420.6,27.6z"/>
		<path class="st2" d="M426.4,25.2h2.8L423.7,56h-2.8L426.4,25.2z"/>
		<path class="st2" d="M428.5,56l19.2-15.6l-13.3-15.2h3.6l11.7,13.5l16.3-13.5h4l-18.7,15.2L465.1,56h-3.7l-12-14l-16.9,14H428.5z"
			/>
	</g>
</g>
</svg>
