<svg id="microsoft" xmlns="http://www.w3.org/2000/svg" width="346.255" height="73.941" viewBox="0 0 346.255 73.941">
  <path id="Path_16" data-name="Path 16" d="M-536.306,279.236h35.175q0,17.587,0,35.175h-35.173V279.236Z" transform="translate(536.306 -279.236)" fill="#ccd2d9"/>
  <path id="Path_17" data-name="Path 17" d="M-352.808,279.236h35.175q0,17.587,0,35.175-17.584,0-35.171,0-.006-17.587,0-35.175Z" transform="translate(391.574 -279.236)" fill="#ccd2d9"/>
  <path id="Path_18" data-name="Path 18" d="M927.482,335.627a13.806,13.806,0,0,1,11.087-1.3c.032,2.172,0,4.346.015,6.519a7.251,7.251,0,0,0-5.607-.513,4.444,4.444,0,0,0-2.537,3.549,47.836,47.836,0,0,0-.141,5.7c3.71.009,7.42,0,11.129,0,.027-2.408-.03-4.819.032-7.227,2.522-.718,5.017-1.523,7.527-2.28.021,3.173-.03,6.348.027,9.524,2.508-.036,5.017-.008,7.527-.017v6.177c-2.518-.1-5.039-.027-7.557-.036.011,3.551,0,7.1,0,10.656.04,1.967-.106,3.944.125,5.9a3.826,3.826,0,0,0,1.644,3.034,5.667,5.667,0,0,0,5.784-.543v6.238a14.872,14.872,0,0,1-6.955,1.065,8.458,8.458,0,0,1-6-2.751c-1.682-2-2.115-4.72-2.149-7.259-.019-5.451,0-10.9-.008-16.354q-5.568,0-11.133,0-.006,12.831,0,25.662h-7.608q0-12.828,0-25.653c-1.764-.034-3.53.008-5.294-.027.006-2.03.015-4.063,0-6.095,1.755-.04,3.513-.023,5.273-.011.129-2.7-.283-5.478.524-8.108a10.375,10.375,0,0,1,4.291-5.856Z" transform="translate(-610.286 -322.225)" fill="#ccd2d9"/>
  <path id="Path_19" data-name="Path 19" d="M179.749,344.575a4.653,4.653,0,0,1,4.21,1.491,4.337,4.337,0,0,1,.528,4.941,4.732,4.732,0,0,1-5.064,2.121,4.3,4.3,0,0,1-3.532-4.238,4.4,4.4,0,0,1,3.858-4.316Z" transform="translate(-25.43 -330.729)" fill="#ccd2d9"/>
  <path id="Path_20" data-name="Path 20" d="M-81.815,349.22h11.064q5.165,13.116,10.36,26.224c.881,2.187,1.7,4.4,2.628,6.568,4.43-10.926,8.924-21.825,13.32-32.766,3.547-.057,7.1-.013,10.645-.021q-.013,22.179,0,44.358c-2.56-.006-5.119.021-7.677-.015.027-10.912,0-21.823.013-32.737,0-.49-.013-.98-.046-1.47a5.868,5.868,0,0,0-.4.71c-4.4,11.169-8.877,22.307-13.248,33.487-1.821.065-3.644,0-5.467.034-4.536-11.169-9.014-22.364-13.527-33.542-.118-.232-.245-.458-.382-.676-.093,4.781-.015,9.566-.04,14.347q0,9.931,0,19.863c-2.415.006-4.829,0-7.242,0q0-22.182,0-44.365Z" transform="translate(177.833 -334.432)" fill="#ccd2d9"/>
  <path id="Path_21" data-name="Path 21" d="M250.429,405.732a20.825,20.825,0,0,1,11.3.034,9.117,9.117,0,0,1,2.17.9c-.042,2.423,0,4.848-.023,7.274a12.086,12.086,0,0,0-8.683-2.668,8.934,8.934,0,0,0-6.319,3.509,12.271,12.271,0,0,0-2.015,8.807,9.534,9.534,0,0,0,3.074,6.321,9.633,9.633,0,0,0,7.117,2.119,14.494,14.494,0,0,0,6.826-2.8c.021,2.3-.011,4.593.017,6.889a18.5,18.5,0,0,1-10.4,2.153,15.419,15.419,0,0,1-9.91-4.132,15.846,15.846,0,0,1-4.6-10.643,19.271,19.271,0,0,1,3.008-11.8,15.3,15.3,0,0,1,8.44-5.962Z" transform="translate(-75.174 -378.405)" fill="#ccd2d9"/>
  <path id="Path_22" data-name="Path 22" d="M653.138,405.271a20.124,20.124,0,0,1,10.529,1.1c0,2.332,0,4.662,0,6.993a13.406,13.406,0,0,0-7.99-2.36,4.09,4.09,0,0,0-3.634,2.009,3.287,3.287,0,0,0,1.1,3.891c2.157,1.443,4.73,2.056,6.965,3.349a10.018,10.018,0,0,1,4.358,4.145,9.279,9.279,0,0,1-1.98,10.7c-2.812,2.628-6.862,3.355-10.586,3.215a22.619,22.619,0,0,1-7.734-1.775c.011-2.453-.015-4.9.013-7.354a16.637,16.637,0,0,0,6.9,2.979,8.884,8.884,0,0,0,5.25-.482,3.038,3.038,0,0,0,.909-4.322,9.147,9.147,0,0,0-3.321-2.174,31.826,31.826,0,0,1-6.566-3.361,7.871,7.871,0,0,1-2.842-4.316,9.7,9.7,0,0,1,1.052-7.588,11.327,11.327,0,0,1,7.569-4.65Z" transform="translate(-394.784 -378.428)" fill="#ccd2d9"/>
  <path id="Path_23" data-name="Path 23" d="M394.849,406.993a8.581,8.581,0,0,1,7.06-.6c-.011,2.537,0,5.074-.006,7.612a8.085,8.085,0,0,0-5.142-1.208,6.316,6.316,0,0,0-4.758,3.8,14.06,14.06,0,0,0-1.084,6.492q0,7.6,0,15.2h-7.5q-.01-15.889-.006-31.78c2.5-.032,5.007-.019,7.51-.006-.01,1.819,0,3.638-.006,5.459a9.742,9.742,0,0,1,3.932-4.982Z" transform="translate(-189.114 -379.149)" fill="#ccd2d9"/>
  <path id="Path_24" data-name="Path 24" d="M179.174,408.716c2.522-.011,5.047-.036,7.569.013-.03,10.59,0,21.183-.013,31.773h-7.553q-.01-15.892,0-31.786Z" transform="translate(-28.022 -381.349)" fill="#ccd2d9"/>
  <path id="Path_25" data-name="Path 25" d="M504.065,413.179a13.453,13.453,0,0,0-6.644-6.716,20.186,20.186,0,0,0-10.891-1.285,15.181,15.181,0,0,0-10,5.345,16.948,16.948,0,0,0-3.511,9.716c-.306,4.1.378,8.452,2.786,11.875a14.405,14.405,0,0,0,8.788,5.731,21.847,21.847,0,0,0,8.907.008,14.724,14.724,0,0,0,8.733-5.389,16.863,16.863,0,0,0,3.344-9.257A20.859,20.859,0,0,0,504.065,413.179Zm-7.348,14.594a6.95,6.95,0,0,1-3.737,3.672,10.258,10.258,0,0,1-6.2.273,7.593,7.593,0,0,1-4.768-3.934,14.676,14.676,0,0,1-1.156-7.958,10.109,10.109,0,0,1,2.939-6.634,7.955,7.955,0,0,1,5-1.975,8.188,8.188,0,0,1,6.363,2.159A10.263,10.263,0,0,1,497.788,420,16.66,16.66,0,0,1,496.717,427.773Z" transform="translate(-259.735 -378.399)" fill="#ccd2d9"/>
  <path id="Path_26" data-name="Path 26" d="M791.08,414.1a13.574,13.574,0,0,0-6.534-7.4,19.7,19.7,0,0,0-11.292-1.534,15.75,15.75,0,0,0-8.406,3.606,15.575,15.575,0,0,0-5.017,9.764,21.053,21.053,0,0,0,1.2,11.045,14.1,14.1,0,0,0,7.728,7.5,20.457,20.457,0,0,0,10.715.906,14.859,14.859,0,0,0,9.353-5.467,17.4,17.4,0,0,0,3.441-10.829A20.267,20.267,0,0,0,791.08,414.1Zm-6.862,10.779a9.911,9.911,0,0,1-1.967,4.667,7.12,7.12,0,0,1-4.445,2.391,10.055,10.055,0,0,1-5.442-.591,7.71,7.71,0,0,1-4.012-4.2,15.1,15.1,0,0,1-.9-6.927,10.991,10.991,0,0,1,2.3-6.332,7.783,7.783,0,0,1,5.552-2.664,8.343,8.343,0,0,1,6.095,1.8,8.722,8.722,0,0,1,2.753,5.062A19.321,19.321,0,0,1,784.219,424.878Z" transform="translate(-485.825 -378.401)" fill="#ccd2d9"/>
  <path id="Path_27" data-name="Path 27" d="M-536.306,462.726q17.587.006,35.175,0,0,17.587,0,35.173h-35.175V462.726Z" transform="translate(536.306 -423.962)" fill="#ccd2d9"/>
  <path id="Path_28" data-name="Path 28" d="M-352.8,462.736q17.584-.006,35.173,0v35.175h-35.175q0-17.587,0-35.173Z" transform="translate(391.572 -423.968)" fill="#ccd2d9"/>
</svg>
