<svg xmlns="http://www.w3.org/2000/svg" width="417.065" height="79.115" viewBox="0 0 417.065 79.115">
  <g id="seo" transform="translate(-2654.767 -11783)">
    <g id="Group_2263" data-name="Group 2263" transform="translate(2276.479 11629.076)">
      <path id="Path_5381" data-name="Path 5381" d="M454.68,195.305l-.665-18.434a3.831,3.831,0,0,0-1.326-2.68L434.86,156.339c-1.195-1.2-2.259-2.415-3.95-2.415h-6.83c-1.462,0-1.741,1.419-.974,2.475l28.968,39.9a1.915,1.915,0,0,0,1.941.977c.768-.223.689-1.3.665-1.968" transform="translate(-19.117)" fill="#ccd2d9" fill-rule="evenodd"/>
      <path id="Path_5382" data-name="Path 5382" d="M426.312,231.8l12.315-1.06a3.337,3.337,0,0,0,3.182-2.035l4.809-11.991a1.908,1.908,0,0,0-.486-1.8l-19.973-26.723a2.7,2.7,0,0,0-1.812-1.116,2.584,2.584,0,0,0-2.059.537l-11.32,9a2.619,2.619,0,0,0-.9,3.045l12.6,30.4a2.785,2.785,0,0,0,1.408,1.553,4.387,4.387,0,0,0,2.234.186" transform="translate(-13.604 -14.26)" fill="#ccd2d9" fill-rule="evenodd"/>
      <path id="Path_5383" data-name="Path 5383" d="M401.465,248.981l5.283-8.337a2.645,2.645,0,0,0,.051-2.631L393.638,207.1a4.585,4.585,0,0,0-2.256-2.745l-6.662-3.731a2.518,2.518,0,0,0-2.717.022c-.835.568-.807,1.531-1.019,2.518l-2.235,10.378c-.643,2.989-.776,3.285.686,5.729l17.674,29.549a2.552,2.552,0,0,0,2.154,1.228,2.381,2.381,0,0,0,2.2-1.068" transform="translate(0 -19.94)" fill="#ccd2d9" fill-rule="evenodd"/>
      <path id="Path_5384" data-name="Path 5384" d="M386.949,178.138l8.082,4.213a1.765,1.765,0,0,0,1.942-.012l13.78-10.076a2.074,2.074,0,0,0,.944-1.455,2.636,2.636,0,0,0-.6-1.628l-6.931-10.975a1.544,1.544,0,0,0-2.294-.263l-15,16.878a2.486,2.486,0,0,0-.9,1.679,1.836,1.836,0,0,0,.975,1.637" transform="translate(-3.309 -1.559)" fill="#ccd2d9" fill-rule="evenodd"/>
      <path id="Path_5385" data-name="Path 5385" d="M422.3,279.883l4.986-7.277c.839-1.225,1.341-2.057,2.979-2.276l11.816-1.586a1.5,1.5,0,0,1,1.558.868,1.527,1.527,0,0,1-.29,1.759l-9.425,9.591a4.867,4.867,0,0,1-3.686,1.5l-6.712-.129a1.517,1.517,0,0,1-1.356-.856,1.544,1.544,0,0,1,.129-1.6" transform="translate(-18.823 -49.428)" fill="#ccd2d9" fill-rule="evenodd"/>
    </g>
    <g id="Group_2264" data-name="Group 2264" transform="translate(2402.56 11495.386)">
      <path id="Path_5386" data-name="Path 5386" d="M339.5,338.789l4.224-5.061c2.926,2.413,5.989,3.946,9.7,3.946,2.924,0,4.69-1.159,4.69-3.065v-.092c0-1.811-1.115-2.74-6.547-4.132-6.547-1.671-10.771-3.48-10.771-9.937v-.09c0-5.9,4.736-9.8,11.375-9.8a18.823,18.823,0,0,1,12.071,4.13l-3.713,5.386c-2.88-2-5.712-3.2-8.452-3.2s-4.176,1.254-4.176,2.83v.094c0,2.134,1.392,2.83,7.01,4.271,6.591,1.719,10.306,4.086,10.306,9.75v.092c0,6.453-4.92,10.075-11.931,10.075a20.68,20.68,0,0,1-13.79-5.2" transform="translate(0 0.043)" fill="#ccd2d9"/>
      <path id="Path_5387" data-name="Path 5387" d="M356.3,310.812H380.81v6.361H363.4v6.593h15.323v6.361H363.4v6.824h17.643v6.362H356.3Z" transform="translate(14.218 0.255)" fill="#ccd2d9"/>
      <path id="Path_5388" data-name="Path 5388" d="M371.864,327.409v-.092c0-9.241,7.287-16.807,17.317-16.807s17.226,7.476,17.226,16.713v.094c0,9.239-7.289,16.807-17.318,16.807s-17.224-7.476-17.224-16.715m27.067,0v-.092c0-5.57-4.086-10.216-9.843-10.216s-9.749,4.551-9.749,10.121v.094c0,5.572,4.086,10.212,9.841,10.212s9.75-4.547,9.75-10.12" transform="translate(27.393 0)" fill="#ccd2d9"/>
      <rect id="Rectangle_8287" data-name="Rectangle 8287" width="7.52" height="7.428" transform="translate(436.361 336.139)" fill="#ccd2d9"/>
      <path id="Path_5389" data-name="Path 5389" d="M397.417,327.409v-.092c0-9.241,7.287-16.807,17.317-16.807s17.226,7.476,17.226,16.713v.094c0,9.239-7.289,16.807-17.318,16.807s-17.224-7.476-17.224-16.715m27.067,0v-.092c0-5.57-4.086-10.216-9.843-10.216s-9.749,4.551-9.749,10.121v.094c0,5.572,4.086,10.212,9.841,10.212s9.75-4.547,9.75-10.12" transform="translate(49.019 0)" fill="#ccd2d9"/>
      <path id="Path_5390" data-name="Path 5390" d="M419.071,310.811h14.857c4.132,0,7.335,1.161,9.471,3.3a10.215,10.215,0,0,1,2.786,7.43v.094a10.1,10.1,0,0,1-6.964,10.074l7.939,11.608H438.8l-6.966-10.4h-5.616v10.4h-7.151ZM433.463,326.6c3.484,0,5.48-1.857,5.48-4.6v-.094c0-3.063-2.136-4.643-5.618-4.643h-7.1V326.6Z" transform="translate(67.345 0.255)" fill="#ccd2d9"/>
      <path id="Path_5391" data-name="Path 5391" d="M435.973,327.409v-.092a16.679,16.679,0,0,1,17.04-16.807c5.849,0,9.377,1.579,12.767,4.457l-4.505,5.432a11.958,11.958,0,0,0-8.495-3.3c-5.2,0-9.333,4.6-9.333,10.121v.094c0,5.943,4.086,10.306,9.845,10.306a11.387,11.387,0,0,0,6.73-1.95v-4.642h-7.2v-6.176h14.113v14.115a21.086,21.086,0,0,1-13.881,5.153c-10.123,0-17.086-7.1-17.086-16.715" transform="translate(81.649 0)" fill="#ccd2d9"/>
      <path id="Path_5392" data-name="Path 5392" d="M468.387,310.686h6.593l13.927,32.731h-7.474l-2.971-7.289H464.718l-2.971,7.289h-7.289Zm7.52,19.128-4.317-10.539-4.318,10.539Z" transform="translate(97.293 0.149)" fill="#ccd2d9"/>
      <path id="Path_5393" data-name="Path 5393" d="M475.332,310.812h6.593l15.228,20.01v-20.01h7.058v32.5h-6.084l-15.74-20.662v20.662h-7.056Z" transform="translate(114.959 0.255)" fill="#ccd2d9"/>
      <rect id="Rectangle_8288" data-name="Rectangle 8288" width="7.151" height="32.501" transform="translate(626.37 311.068)" fill="#ccd2d9"/>
      <path id="Path_5394" data-name="Path 5394" d="M501.866,327.409v-.092a16.516,16.516,0,0,1,16.945-16.807c6.13,0,9.8,2.042,12.815,5.015l-4.551,5.245c-2.505-2.275-5.061-3.669-8.31-3.669-5.478,0-9.424,4.551-9.424,10.121v.094c0,5.572,3.853,10.212,9.424,10.212,3.715,0,5.988-1.484,8.543-3.805l4.549,4.6a16.607,16.607,0,0,1-13.325,5.8,16.4,16.4,0,0,1-16.667-16.715" transform="translate(137.415 0)" fill="#ccd2d9"/>
    </g>
  </g>
</svg>
