<svg xmlns="http://www.w3.org/2000/svg" width="39.385" height="32" viewBox="0 0 39.385 32">
  <path id="twitter" d="M35.338,10.23a16.117,16.117,0,0,0,4.047-4.191v0a16.863,16.863,0,0,1-4.652,1.275,8.031,8.031,0,0,0,3.553-4.462,16.155,16.155,0,0,1-5.12,1.954A8.074,8.074,0,0,0,19.2,10.325a8.314,8.314,0,0,0,.187,1.841A22.86,22.86,0,0,1,2.742,3.72,8.074,8.074,0,0,0,5.223,14.512a7.981,7.981,0,0,1-3.648-.994v.089A8.112,8.112,0,0,0,8.044,21.54a8.029,8.029,0,0,1-2.117.266A7.127,7.127,0,0,1,4.4,21.668a8.154,8.154,0,0,0,7.544,5.625A16.23,16.23,0,0,1,1.931,30.737,15.271,15.271,0,0,1,0,30.627,22.738,22.738,0,0,0,12.386,34.25,22.824,22.824,0,0,0,35.338,10.23Z" transform="translate(0 -2.25)" fill="#9ca1a6"/>
</svg>
