<svg xmlns="http://www.w3.org/2000/svg" width="64.151" height="55.148" viewBox="0 0 64.151 55.148">
  <g id="upload" transform="translate(0 0)">
    <g id="Group_1157" data-name="Group 1157" transform="translate(18.597 20.723)">
      <g id="Group_1156" data-name="Group 1156" transform="translate(0 0)">
        <path id="Path_2734" data-name="Path 2734" d="M161.967,201.322l-13.541,13.541,3.537,3.537,7.5-7.5v24.85h5V210.9l7.5,7.5,3.537-3.537Z" transform="translate(-148.426 -201.322)" fill="#9ca1a6"/>
      </g>
    </g>
    <g id="Group_1159" data-name="Group 1159">
      <g id="Group_1158" data-name="Group 1158">
        <path id="Path_2735" data-name="Path 2735" d="M52.139,55.632a20.261,20.261,0,0,0-40.107-3.479,15.258,15.258,0,0,0,3.224,30.17h2.626v-5h-2.64a10.254,10.254,0,0,1-.818-20.475l2.076-.166.213-2.072a15.257,15.257,0,0,1,30.432,1.579v4.377h3.626a8.378,8.378,0,1,1,0,16.757H46.394v5h4.377a13.381,13.381,0,0,0,1.368-26.692Z" transform="translate(0 -35.93)" fill="#9ca1a6"/>
      </g>
    </g>
  </g>
</svg>
