<svg id="walmart" xmlns="http://www.w3.org/2000/svg" width="327.573" height="79.116" viewBox="0 0 327.573 79.116">
  <g id="Group_36" data-name="Group 36" transform="translate(0 0)">
    <g id="Group_35" data-name="Group 35">
      <g id="Group_34" data-name="Group 34">
        <g id="Group_33" data-name="Group 33">
          <path id="Path_29" data-name="Path 29" d="M136.656,113.322c0-7.816-3.34-14.691-14.619-14.691a26.716,26.716,0,0,0-12.9,3.075l1.835,6.282a18.884,18.884,0,0,1,9.4-2.645c5.724-.013,6.66,3.242,6.66,5.327v.493c-12.476-.02-20.357,4.3-20.357,13.1,0,5.373,4.017,10.411,10.993,10.411a12.5,12.5,0,0,0,10.035-4.456h.215s1.424,5.955,9.273,3.679a50.978,50.978,0,0,1-.543-8.309m-9.312-4.009a6.685,6.685,0,0,1-.232,1.867,6.541,6.541,0,0,1-6.293,4.41c-2.576,0-4.634-1.468-4.634-4.565,0-4.738,5.22-6.046,11.158-6.015Z" transform="translate(57.693 -67.705)" fill="#ccd2d9"/>
          <path id="Path_30" data-name="Path 30" d="M18,92.89s8.148,33.4,9.451,38.82c1.516,6.328,4.254,8.654,12.142,7.086l5.088-20.706c1.292-5.147,2.156-8.812,2.984-14.044h.146a136.8,136.8,0,0,0,2.474,14.059s2.07,9.4,3.132,14.339,4.024,8.046,11.749,6.352L77.3,92.89H67.506l-4.141,19.846c-1.116,5.777-2.12,10.293-2.9,15.581h-.139c-.708-5.234-1.605-9.57-2.74-15.2L53.274,92.89H43.069l-4.608,19.718c-1.307,5.991-2.528,10.83-3.307,15.935h-.139c-.8-4.808-1.859-10.888-3-16.687,0,0-2.743-14.1-3.7-18.965" transform="translate(-18 -72.605)" fill="#ccd2d9"/>
          <path id="Path_31" data-name="Path 31" d="M78.8,113.322c0-7.816-3.338-14.691-14.617-14.691a26.727,26.727,0,0,0-12.9,3.075l1.839,6.282a18.873,18.873,0,0,1,9.4-2.645c5.726-.013,6.662,3.242,6.662,5.327v.493c-12.478-.02-20.357,4.3-20.357,13.1,0,5.373,4.013,10.411,10.99,10.411a12.51,12.51,0,0,0,10.037-4.456h.209s1.427,5.955,9.282,3.679a50.119,50.119,0,0,1-.549-8.309m-9.314-4.009a6.358,6.358,0,0,1-.232,1.867,6.532,6.532,0,0,1-6.287,4.41c-2.582,0-4.632-1.468-4.632-4.565,0-4.738,5.216-6.046,11.151-6.015Z" transform="translate(8.317 -67.705)" fill="#ccd2d9"/>
          <path id="Path_32" data-name="Path 32" d="M77.678,129.05V92.888h-9.32V138.8h9.32" transform="translate(24.982 -72.607)" fill="#ccd2d9"/>
          <path id="Path_33" data-name="Path 33" d="M139.191,92.89v33.869c0,4.663.877,7.937,2.76,9.937a10.316,10.316,0,0,0,7.583,2.877,22.055,22.055,0,0,0,6.749-1l-.12-7.286a14.186,14.186,0,0,1-3.542.423c-3.173,0-4.237-2.033-4.237-6.226V112.53H156.5v-8.786h-8.115V92.89" transform="translate(85.439 -72.605)" fill="#ccd2d9"/>
          <path id="Path_34" data-name="Path 34" d="M126.208,99.409V133.9h9.612v-17.66a13.307,13.307,0,0,1,.209-2.545,7.264,7.264,0,0,1,7.607-6.061,17.548,17.548,0,0,1,2.769.245v-9.03a9.175,9.175,0,0,0-2.115-.213c-3.592,0-7.674,2.315-9.386,7.282h-.263v-6.5" transform="translate(74.358 -67.705)" fill="#ccd2d9"/>
          <path id="Path_35" data-name="Path 35" d="M76.909,99.409V133.9H86.28V113.672a8.022,8.022,0,0,1,.441-2.823c.778-2.035,2.673-4.421,5.694-4.421,3.781,0,5.551,3.2,5.551,7.813V133.9h9.36V113.428a9.536,9.536,0,0,1,.393-2.8,5.9,5.9,0,0,1,5.622-4.2c3.835,0,5.674,3.144,5.674,8.573V133.9h9.368V113.585c0-10.713-5.44-14.954-11.577-14.954A12.488,12.488,0,0,0,110,100.5a14.533,14.533,0,0,0-4.369,4.3h-.137a9.836,9.836,0,0,0-9.507-6.169c-5.831,0-8.45,2.956-10.044,5.464H85.8V99.409" transform="translate(32.28 -67.705)" fill="#ccd2d9"/>
          <path id="Path_36" data-name="Path 36" d="M178.2,108.576c1.848,0,3.377-.964,3.583-2.208l1.829-20.7c0-2.044-2.395-3.722-5.409-3.722s-5.4,1.677-5.4,3.722l1.828,20.7c.2,1.244,1.729,2.208,3.581,2.208" transform="translate(114.126 -81.946)" fill="#ccd2d9"/>
          <path id="Path_37" data-name="Path 37" d="M180.752,107.4c.925-1.6.853-3.409-.124-4.209L163.616,91.257c-1.768-1.018-4.421.211-5.929,2.823s-1.246,5.52.525,6.543l18.834,8.769c1.184.441,2.788-.4,3.713-2" transform="translate(100.386 -74.303)" fill="#ccd2d9"/>
          <path id="Path_38" data-name="Path 38" d="M182.049,107.392c.93,1.6,2.526,2.441,3.707,2l18.841-8.769c1.774-1.023,2.028-3.935.519-6.543s-4.157-3.841-5.928-2.823L182.175,103.19c-.973.8-1.038,2.608-.12,4.209" transform="translate(121.469 -74.303)" fill="#ccd2d9"/>
          <path id="Path_39" data-name="Path 39" d="M178.2,110.26c1.848,0,3.377.962,3.583,2.206l1.829,20.7c0,2.046-2.395,3.729-5.409,3.729s-5.4-1.683-5.4-3.729l1.828-20.7c.2-1.244,1.729-2.206,3.581-2.206" transform="translate(114.126 -57.779)" fill="#ccd2d9"/>
          <path id="Path_40" data-name="Path 40" d="M182.049,107.752c.93-1.607,2.526-2.441,3.707-2l18.841,8.767c1.774,1.025,2.028,3.939.519,6.548s-4.157,3.839-5.928,2.819l-17.013-11.931c-.973-.8-1.038-2.61-.12-4.209" transform="translate(121.469 -61.728)" fill="#ccd2d9"/>
          <path id="Path_41" data-name="Path 41" d="M180.752,107.746c.925,1.6.853,3.4-.124,4.209l-17.012,11.927c-1.768,1.018-4.421-.213-5.929-2.815s-1.246-5.527.525-6.552l18.834-8.763c1.184-.443,2.788.393,3.713,2" transform="translate(100.386 -61.728)" fill="#ccd2d9"/>
        </g>
      </g>
    </g>
  </g>
</svg>
