<svg id="WhatsApp" xmlns="http://www.w3.org/2000/svg" width="47.864" height="47.865" viewBox="0 0 47.864 47.865">
  <path id="Path_2" data-name="Path 2" d="M28.972,22.217l-.018.15c-4.386-2.186-4.844-2.477-5.411-1.627-.393.588-1.538,1.923-1.883,2.317s-.7.419-1.288.15a16.186,16.186,0,0,1-4.792-2.962,18.094,18.094,0,0,1-3.311-4.128c-.584-1.009.638-1.153,1.751-3.259a1.1,1.1,0,0,0-.05-1.045c-.15-.3-1.34-3.231-1.839-4.4-.479-1.165-.971-1.017-1.34-1.017a2.968,2.968,0,0,0-2.728.686c-3.219,3.538-2.407,7.188.347,11.069,5.413,7.084,8.3,8.388,13.57,10.2a8.251,8.251,0,0,0,3.749.241c1.145-.181,3.524-1.438,4.021-2.844a4.937,4.937,0,0,0,.359-2.842c-.148-.269-.538-.419-1.137-.688Z" transform="translate(5.943 6.317)" fill="#fff"/>
  <path id="Path_3" data-name="Path 3" d="M40.924,6.879C25.589-7.945.211,2.806.2,23.719A23.6,23.6,0,0,0,3.382,35.576L0,47.865,12.634,44.57c15.765,8.516,35.222-2.792,35.23-20.839a23.522,23.522,0,0,0-6.97-16.774ZM43.88,23.665C43.868,38.888,27.157,48.4,13.94,40.625l-.718-.427L5.744,42.143l2-7.269-.477-.748a19.78,19.78,0,0,1,30.807-24.4,19.521,19.521,0,0,1,5.8,13.94Z" transform="translate(0 0)" fill="#fff"/>
</svg>
